<?xml version="1.0" encoding="utf-8"?>
<!-- Generator: Adobe Illustrator 23.0.2, SVG Export Plug-In . SVG Version: 6.00 Build 0)  -->
<svg version="1.1" id="Layer_1" xmlns="http://www.w3.org/2000/svg" xmlns:xlink="http://www.w3.org/1999/xlink" x="0px" y="0px"
	 viewBox="0 0 141.7 143.7" style="enable-background:new 0 0 141.7 143.7;" xml:space="preserve">
<style type="text/css">
	.st0{fill:#000D6B;stroke:#FFFFFF;stroke-miterlimit:10;}
	.st1{fill:#F8F8F8;}
	.st2{fill:#000D6B;}
</style>
<circle class="st0" cx="70.9" cy="72.1" r="70.9"/>
<path class="st1" d="M20.7,102.6v13.7h27.5v-13.7H20.7z"/>
<path class="st1" d="M57.2,102.6v13.7h27.5v-13.7H57.2z"/>
<path class="st1" d="M93.8,102.6v13.7h27.5v-13.7H93.8z"/>
<path class="st1" d="M20.5,47.9v13.7H48V47.9H20.5z"/>
<path class="st1" d="M57.2,47.9v13.7h27.5V47.9H57.2z"/>
<path class="st1" d="M93.7,47.9v13.7h27.5V47.9C121.1,47.9,93.7,47.9,93.7,47.9z"/>
<rect x="38.9" y="61.6" class="st1" width="4.8" height="41"/>
<rect x="61.7" y="61.6" class="st1" width="18.2" height="41"/>
<rect x="75.1" y="61.6" class="st1" width="4.8" height="41"/>
<rect x="97.9" y="61.6" class="st1" width="18.6" height="41"/>
<rect x="111.7" y="61.6" class="st1" width="4.8" height="41"/>
<path class="st1" d="M126,49.1c-1-0.8-52.3-40.6-52.4-40.7c-0.8-0.6-1-1-1.8-1.4c-0.2-0.1-0.5-0.2-0.8-0.2c-0.4,0-0.8,0.2-1,0.3
	c-0.7,0.4-0.9,0.7-1.5,1.2c-17.2,13.5-34.4,27-51.6,40.5c-1.1,0.3-1.7,1.4-1.5,2.3c0.1,0.7,0.7,1.2,1.4,1.4c36,0,71.9,0,107.9,0
	c0.1,0,1.1,0.1,1.7-0.6C126.8,51.2,126.8,50,126,49.1z"/>
<path class="st2" d="M70.9,25.1c-5.1,0-9.3,4.2-9.3,9.3s4.2,9.3,9.3,9.3s9.3-4.2,9.3-9.3S76.1,25.1,70.9,25.1z"/>
<rect x="25.5" y="61.6" class="st1" width="18.2" height="41"/>
</svg>
