<?xml version="1.0" encoding="utf-8"?>
<!-- Generator: Adobe Illustrator 23.0.2, SVG Export Plug-In . SVG Version: 6.00 Build 0)  -->
<svg version="1.1" id="Layer_1" xmlns="http://www.w3.org/2000/svg" xmlns:xlink="http://www.w3.org/1999/xlink" x="0px" y="0px"
	 viewBox="0 0 1024 498.9" style="enable-background:new 0 0 1024 498.9;" xml:space="preserve">
<style type="text/css">
	.st0{fill:#E9EAEB;}
	.st1{fill:#263238;}
	.st2{fill:none;stroke:#263238;stroke-miterlimit:10;}
	.st3{fill:none;stroke:#263238;stroke-linecap:round;stroke-linejoin:round;}
	.st4{fill:#FFFFFF;stroke:#263238;stroke-linecap:round;stroke-linejoin:round;}
	.st5{fill:#263238;stroke:#263238;stroke-linecap:round;stroke-linejoin:round;}
	.st6{fill:#2D46B9;}
	.st7{fill:#FFFFFF;}
	.st8{fill:#FF5DA2;}
	.st9{fill:none;stroke:#263238;stroke-width:2;stroke-linecap:round;stroke-linejoin:round;}
	.st10{fill-rule:evenodd;clip-rule:evenodd;fill:#2D46B9;}
	.st11{fill-rule:evenodd;clip-rule:evenodd;fill:#FFFFFF;}
	.st12{fill-rule:evenodd;clip-rule:evenodd;fill:#FF5DA2;}
	.st13{fill:#000D6B;}
	.st14{font-family:'Century';}
	.st15{font-size:42px;}
	.st16{letter-spacing:-2;}
	.st17{letter-spacing:-3;}
</style>
<title>landing-large</title>
<g id="BACKGROUND">
	<path class="st0" d="M0,0v498.9h12.8c22.9-8.6,58.1-23.8,96.2-50C221.8,371.3,203.3,305,285,244c123.7-92.4,265.1-8.2,345-97
		c10.9-12.2,43.3-52.7,98-65c12.4-2.8,18-2.3,44.3-3.1c0,0,79.7-1.1,215.4-34.9c54.5-13.6,27-41.7,36.3-44H0z"/>
</g>
<g id="OBJECTS">
	<path class="st1" d="M774.5,412.2c2.6,1.1,9,1,9,1s-1.4-4.2-1.5-4.4c-1.4-2.9-5.8-7.7-9.4-7.2c-2.3,0.4-3.9,2.6-3.5,4.9
		c0,0,0,0,0,0c0,0.1,0.1,0.3,0.1,0.4C769.7,409.5,772.2,411.3,774.5,412.2z"/>
	<path class="st1" d="M776.7,430.7c2.7,0.4,8.4-1.3,8.8-1.4c0.9,3.2,2.1,6.4,3.4,9.5c0.8,1.8,1.6,3.6,2.5,5.4
		c-0.5-0.8-1-1.4-1.1-1.5c-2.1-2.5-7.6-5.9-11-4.5c-2.1,1-3.1,3.5-2.1,5.7c0,0,0,0,0,0c0.1,0.1,0.1,0.3,0.2,0.4
		c1.2,2.3,4.2,3.4,6.5,3.7s7.3-1,8.6-1.3c0.3,0.7,0.7,1.4,1,2c1.7,3.3,3.3,6.5,4.8,9.8c0.5,1.1,1,2.3,1.5,3.4
		c-0.5-0.7-0.8-1.2-0.9-1.3c-2.1-2.4-7.6-5.9-11-4.5c-2.1,1-3.1,3.5-2.1,5.7l0.2,0.4c1.2,2.3,4.2,3.3,6.5,3.7s6.9-0.8,8.3-1.3
		c0.5,1.1,1,2.4,1.3,3.5c0.3,0.8,0.5,1.6,0.8,2.4s0.5,1.6,0.7,2.4c0.4,1.5,0.8,3.1,1.1,4.7c0.2,1,0.4,2,0.6,3.1
		c-0.5-1.1-1.6-3.4-1.7-3.5c-1.7-2.7-6.7-7-10.2-6.1c-2.3,0.7-3.6,3-2.9,5.3c0,0.1,0.1,0.3,0.1,0.4c0.9,2.4,3.6,3.9,5.9,4.6
		c2.5,0.8,8.2,0.1,8.9,0c0.3,1.7,0.7,3.3,0.9,4.9c0.6,3.4,1.1,6.5,1.4,9.1h2.4c-0.4-2.7-0.9-5.9-1.7-9.5c-0.3-1.7-0.7-3.5-1.2-5.4
		c1.7-0.7,3.4-1.4,5-2.3c1.8,2,6.6,4.4,7.2,4.7c-0.6,1.6-1.3,3.1-1.9,4.6c-1.3,3-2.6,5.7-3.7,8h2.6c1-2.1,2-4.5,3.1-7.1
		c0.7-1.6,1.3-3.3,2-5.1c0.7,0.1,6.3,1.3,8.8,0.7c2.3-0.5,5.2-1.9,6.3-4.2c1-2.1,0.2-4.7-1.9-5.7c-0.1-0.1-0.3-0.1-0.4-0.2
		c-3.4-1.1-8.7,2.8-10.6,5.3c-0.1,0.2-1.2,2-1.8,3.1c0.3-0.7,0.5-1.4,0.8-2.2c0.5-1.5,1-3,1.6-4.6c0.2-0.8,0.5-1.6,0.7-2.4
		s0.4-1.7,0.6-2.5c0.5-2,0.8-4,1.1-6c1.3,0.5,6,2.1,8.4,1.9s5.4-1,6.8-3.2c1.4-1.9,0.9-4.6-1-6c0,0,0,0,0,0L841,457
		c-3.2-1.7-9,1.4-11.3,3.7c-0.2,0.1-1.6,2-2.4,3c0.2-1.2,0.4-2.4,0.5-3.7c0.4-3.6,0.8-7.2,1.1-10.9l0.3-3.3c0.5,0.2,6,2.2,8.7,2
		c2.4-0.2,5.4-1.1,6.8-3.2c1.4-1.9,0.9-4.6-1-6c0,0,0,0,0,0c-0.1-0.1-0.2-0.2-0.4-0.2c-3.2-1.7-9,1.4-11.3,3.7
		c-0.2,0.2-2.3,2.8-2.8,3.5c0.3-2.4,0.5-4.9,0.9-7.3c0.5-3.2,1.2-6.4,2.1-9.5c0.2,0.1,6,2.3,8.7,2c2.4-0.2,5.4-1,6.8-3.2
		c1.4-1.9,0.9-4.6-1-6c0,0,0,0,0,0c-0.1-0.1-0.2-0.2-0.4-0.2c-3.2-1.6-9,1.4-11.3,3.7c-0.2,0.2-2.4,3-2.8,3.5c0-0.2,0.1-0.4,0.1-0.5
		c1-3.1,2.3-6.1,3.8-9c0.8-1.6,1.7-3.1,2.6-4.6c1,0.5,5.7,2.8,8.3,2.9s5.5-0.5,7.1-2.4c1.5-1.8,1.3-4.4-0.4-6l-0.4-0.3
		c-3-2-9.1,0.4-11.6,2.4c-0.1,0.1-1.4,1.4-2.3,2.3c0.4-0.6,0.8-1.3,1.2-1.9c1.5-2.3,3-4.3,4.4-6c0.8-1,1.5-1.9,2.2-2.7
		c1.3,0,6.4-0.2,8.6-1.2s4.7-3,5.2-5.5c0.6-2.3-0.8-4.6-3.1-5.2c0,0,0,0,0,0l-0.5-0.1c-3.6-0.4-7.9,4.6-9.2,7.5
		c-0.1,0.3-1.4,4.5-1.4,4.4h0.1c-0.7,0.8-1.4,1.6-2.2,2.5c-1.4,1.7-3,3.7-4.6,6c-1.7,2.4-3.3,4.9-4.7,7.5c-1.6,2.9-2.9,5.9-4,9.1
		v0.1c0-1.1,0-4-0.1-4.3c-0.4-3.2-3.1-9.1-6.7-9.8c-2.3-0.4-4.5,1.3-4.9,3.6c0,0,0,0,0,0c0,0.1,0,0.3,0,0.4
		c-0.2,2.5,1.6,5.1,3.4,6.7c2,1.8,7.7,3.6,8.1,3.7c-1,3.2-1.8,6.5-2.4,9.8c-0.3,1.9-0.6,3.9-0.9,5.9v-1.9c-0.4-3.2-3.1-9.1-6.7-9.8
		c-2.3-0.4-4.5,1.2-4.9,3.6c0,0,0,0,0,0c0,0.2,0,0.3,0,0.5c-0.2,2.5,1.7,5.1,3.4,6.7s6.6,3.2,7.9,3.6c-0.1,0.8-0.2,1.5-0.3,2.3
		c-0.4,3.6-0.8,7.3-1.4,10.8c-0.2,1.3-0.4,2.5-0.6,3.7v-1.6c-0.4-3.2-3.1-9.1-6.7-9.8c-2.3-0.4-4.5,1.3-4.9,3.6c0,0.1,0,0.3,0,0.4
		c-0.2,2.5,1.6,5.1,3.4,6.7s6.1,3.1,7.6,3.5c-0.3,1.2-0.5,2.5-0.8,3.7c-0.2,0.8-0.4,1.6-0.7,2.4s-0.5,1.6-0.8,2.4
		c-0.5,1.5-1.1,3-1.7,4.5c-0.4,1-0.8,2-1.2,2.9c0.2-1.3,0.5-3.7,0.5-3.9c-0.1-2.8-0.8-5.6-2.3-8.1c0-0.3,0-0.6-0.1-1
		c-0.3-2.3-2.4-4-4.8-3.7c0,0,0,0,0,0c-0.2,0-0.3,0-0.5,0.1c-3.5,0.9-5.7,7.1-5.9,10.3c0,0.2,0.1,2.3,0.2,3.6
		c-0.2-0.8-0.3-1.5-0.5-2.3c-0.4-1.5-0.8-3.1-1.2-4.7c-0.2-0.8-0.5-1.6-0.7-2.4s-0.6-1.6-0.8-2.4c-0.7-1.9-1.5-3.8-2.3-5.7
		c1.4-0.3,6.1-1.5,8.1-3s4-3.9,3.9-6.4c0.1-2.4-1.8-4.3-4.2-4.4c0,0,0,0,0,0h-0.5c-3.6,0.4-6.7,6.1-7.4,9.3c0,0.2-0.3,2.5-0.4,3.8
		c-0.5-1.1-1-2.3-1.6-3.4c-1.6-3.2-3.3-6.5-5-9.7c-0.5-1-1-2-1.5-3c0.5-0.1,6.2-1.4,8.4-3.1c1.9-1.5,3.9-3.9,3.9-6.4
		c0.1-2.4-1.8-4.3-4.2-4.4h-0.4c-3.6,0.4-6.7,6.1-7.4,9.3c0,0.2-0.4,3.6-0.4,4.5c-1.1-2.2-2.3-4.4-3.2-6.6c-1.4-3-2.6-6-3.5-9.1
		c0.2,0,6.2-1.4,8.4-3.1c1.9-1.5,4-3.9,3.9-6.4c0.1-2.4-1.8-4.3-4.2-4.4h-0.4c-3.6,0.4-6.7,6.1-7.4,9.3c0,0.3-0.4,3.9-0.4,4.5
		c0-0.2-0.1-0.4-0.2-0.5c-0.9-3.2-1.5-6.4-1.8-9.6c-0.2-1.8-0.3-3.5-0.3-5.2c1.2-0.1,6.3-0.8,8.5-2.1s4.3-3.4,4.6-6
		c0.3-2.3-1.3-4.5-3.6-4.8c0,0,0,0,0,0c-0.2,0-0.3,0-0.5,0c-3.6,0-7.4,5.3-8.3,8.4c0,0.2-0.4,1.9-0.7,3.2v-2.3
		c0-2.7,0.2-5.2,0.3-7.5c0.1-1.3,0.2-2.4,0.4-3.4c1-0.7,5.2-3.7,6.5-5.8s2.3-5,1.3-7.4c-0.8-2.2-3.2-3.4-5.4-2.6c0,0,0,0,0,0
		c-0.2,0.1-0.3,0.1-0.4,0.2c-3.2,1.6-4,8.1-3.5,11.3c0,0.3,1.3,4.5,1.3,4.5h0.1c-0.1,1-0.3,2.1-0.4,3.3c-0.2,2.2-0.4,4.7-0.5,7.5
		c-0.1,3,0,5.9,0.2,8.9c0.3,3.3,0.8,6.6,1.7,9.8v0.1c-0.6-0.9-2.3-3.3-2.4-3.5c-2.1-2.4-7.6-5.9-11-4.5c-2.1,1-3.1,3.5-2.1,5.7
		c0,0,0,0,0,0c0.1,0.1,0.1,0.3,0.2,0.4C771.3,429.2,774.3,430.3,776.7,430.7z"/>
	<path class="st1" d="M838.7,413.7c0,0,1.1-4.2,1.1-4.5c0.4-3.2-0.6-9.6-3.8-11.2c-2.1-1-4.7,0-5.6,2.1c0,0,0,0,0,0
		c-0.1,0.1-0.1,0.3-0.2,0.4c-0.9,2.4,0.2,5.4,1.5,7.4C833.3,410.3,838.7,413.7,838.7,413.7z"/>
	<circle class="st2" cx="953.6" cy="114.8" r="48.6"/>
	<ellipse transform="matrix(0.9741 -0.226 0.226 0.9741 -1.2606 218.4553)" class="st2" cx="953.6" cy="114.7" rx="45" ry="45"/>
	<circle class="st1" cx="953.6" cy="114.8" r="2.5"/>
	<polyline class="st3" points="930.8,114.8 953.6,114.8 953.6,86.9 	"/>
	<path class="st4" d="M469.3,481.3c0,0,9.1-46.3,9.1-50c-0.3-11.3-1.6-22.5-3.7-33.5c-3-16.5-12.2-57.3-14.6-64s6.7-18.8,9.1-32.8
		s7.9-27.4,15.3-36s33.5-27.4,33.5-27.4h13.4c0,0-4.9,80.4,1.8,92.6s18.9,37.7,20.1,48.7c1.2,11-6.1,29.3-4.9,39.6
		c1.2,10.4-9.1,27.4-11.6,34.7c-2.4,7.4-1.2,30.4-1.2,30.4"/>
	<path class="st5" d="M516.9,260.1l-9.8,11.3c0,0-2.4,13-3.6,19.1c-0.8,3.8-2,7.5-3.7,11c0,0,4.3,9.8,6.7,13.4
		c1.5,2.3,2.7,4.7,3.6,7.3l6.7,4.3L516.9,260.1L516.9,260.1z"/>
	<path class="st3" d="M483.2,303.1c3.3-0.4,6.6-0.7,9.9-0.7"/>
	<path class="st3" d="M500.1,266.5c0,0,7,2.1,7,4.9"/>
	<path class="st4" d="M457.8,489.2c0,0,3-28.9,3-32v-9.1c0-3,3-5.3,3-5.3s29.7-6.1,59.4,3.8s22.8,25.9,22.8,25.9l-1.5,22.9"/>
	<path class="st5" d="M524.8,146.7h354.8c6,0,11,4.9,11,10.9v210.9c0,6-4.9,11-11,11H524.8c-6,0-11-4.9-11-11V157.7
		C513.8,151.6,518.7,146.7,524.8,146.7z"/>
	<path class="st4" d="M537.9,159.5h328.4c6,0,11,4.9,11,10.9v185.3c0,6-4.9,11-11,11H537.9c-6,0-11-4.9-11-11V170.5
		C527,164.4,531.9,159.5,537.9,159.5z"/>
	<rect x="757.9" y="167.9" class="st4" width="93.5" height="59.9"/>
	<rect x="757.9" y="221.1" class="st5" width="93.5" height="6.7"/>
	<rect x="757.9" y="223.5" class="st4" width="93.5" height="1.9"/>
	<circle class="st6" cx="803.1" cy="197.5" r="13.8"/>
	<polygon class="st7" points="811,197.8 799.1,190.9 799.1,204.8 	"/>
	<rect x="757.9" y="234.2" class="st4" width="93.5" height="59.9"/>
	<rect x="757.9" y="287.4" class="st5" width="93.5" height="6.7"/>
	<rect x="757.9" y="289.8" class="st4" width="93.5" height="1.9"/>
	<circle class="st6" cx="803.1" cy="263.8" r="13.8"/>
	<polygon class="st7" points="811,264.2 799.1,257.2 799.1,271.1 	"/>
	<rect x="757.9" y="300.5" class="st4" width="93.5" height="59.9"/>
	<rect x="757.9" y="353.7" class="st5" width="93.5" height="6.7"/>
	<rect x="757.9" y="356.1" class="st4" width="93.5" height="1.9"/>
	<circle class="st6" cx="803.1" cy="330.2" r="13.8"/>
	<polygon class="st7" points="811,330.5 799.1,323.6 799.1,337.4 	"/>
	<path class="st8" d="M566.8,187.9H726c3.7,0,6.6,3,6.6,6.6v162.1c0,3.7-3,6.6-6.6,6.6H566.8c-3.7,0-6.6-3-6.6-6.6V194.5
		C560.1,190.8,563.1,187.9,566.8,187.9z"/>
	<path class="st4" d="M497.4,346.1c0,0,11-23.8,12.2-33s-1.1-30.5,1.9-39s1.2-19.5,8.5-23.8s17.1-3.1,18.9,14
		c1.8,17.1,0,43.9,0.6,53c0.6,9.1,16.5,22.6,17.1,42s-6.1,39.6-7.9,48.2c-1.8,8.5-9.1,28.6-9.1,28.6"/>
	<path class="st3" d="M514.4,270c3.6-0.9,7.4-1,11-0.2c3.3,0.6,6.5,1.4,9.8,2.4c0.4-4.1,0.4-8.1,0-12.2c0,0,0.8-7-3.4-9.8
		c-4.2-2.8-12.7-2.1-15.5,4.2C513.4,260.8,514.4,270,514.4,270z"/>
	<path class="st3" d="M529.6,281.2c0,0-14.1-4.2-17.6,1.4"/>
	<path class="st3" d="M515.6,284.8c0,0,4.2,1.4,13.4,0.7"/>
	<path class="st5" d="M882.6,182.1c0,0-15.8,4.9-14.6,9.1s30.5,40.8,35.4,39.6s10.4-17.1,10.4-28S882.6,182.1,882.6,182.1z"/>
	<path class="st4" d="M1012.1,289.7l-14.9-18.1c0,0-19.5-45.7-25-54.8s-17.7-35.4-21.9-36.6s-10.4-1.8-12.2-3.1s-9.1-3.6-18.9-4.3
		s-29.9-4.9-38.4-7.4s-9.1,0-19.5,3.6s-41.4,14.6-43.9,16.5s0.7,7.3,8.5,10.3s11.6,0.6,20.7-0.6s23.2-3.6,25-3.6s15.2,1.8,17.7,3
		s8.5,11,8.5,15.9c-0.1,3.5-0.5,6.9-1.2,10.4l-0.2,42.3c0,0,19.3,21.8,32.7,29.2s19.8,7.9,19.8,7.9l20.8,19.3"/>
	<path class="st4" d="M938,177.2c4,4.1,7.2,8.9,9.8,14"/>
	<path class="st4" d="M995.3,358.6L949,306.4c0,0-21.3-9.1-35.3-18.3s-31.1-38.4-35.4-45.1s-13.4-20.1-20.7-25s-20.7-20.1-23.7-26.2
		s2.4-14,9.1-14.6s34.7,12.8,39.6,20.1s18.9,22.6,18.9,22.6"/>
	<path class="st3" d="M867.3,198.5c0,0-7.3,7.3-7.9,11"/>
	<path class="st3" d="M872.8,199.1c0,0-5.5,8.5-9.1,11.6"/>
	<path class="st3" d="M861.2,187c-7.9,5.5-13.4,15.8-13.4,15.8s-13-4.7-14-11s1-12.5,9.1-14.6S861.2,187,861.2,187z"/>
	<path class="st4" d="M1011.3,395.2c-2.3-3.8-53.3-63.6-55.6-71.2s6.8-25.1,21.3-41.1c7.6-8.4,26.7-22.2,37.3-11
		c4.4,4.6,8.1,10.3,12.9,14.8"/>
	<path class="st4" d="M689.6,366.5l2.1-32.6c0.6,2.6,1.4,5.2,2.5,7.7c1,2.1,22.4-7.7,22.4-7.7s-5.6-37.8-9.1-51.4
		s-4.6-31.5-7.7-32.5s-42.7-19.6-43.7-19.6s-22.4,2.1-22.4,2.1l-34.7,21l5.2,113.1L689.6,366.5z"/>
	<path class="st3" d="M662.1,279c0,1.1-0.1,2.3-0.2,3.4"/>
	<path class="st3" d="M660,248.8c1.2,8.3,2,16.7,2.2,25.1"/>
	<line class="st3" x1="687.7" y1="276.1" x2="687.8" y2="270.5"/>
	<line class="st3" x1="686.7" y1="331.8" x2="687.6" y2="280.2"/>
	<polygon class="st4" points="720.8,366.5 718.3,345.2 694.3,349.7 702.5,366.5 	"/>
	<path class="st4" d="M690.5,339.8c4.2-1.9,8.3-4.1,12.2-6.5c6.8-4.2,13.3-5.3,15.2-1.9s6.1,12.9,4.6,14.5s-24,8.8-26.3,8.8
		s-6.5-7.7-6.5-7.7C689.3,344.6,689.6,342.1,690.5,339.8z"/>
	<path class="st4" d="M637.8,222.2c0,0-4,3.2-5.2,5.3c-1.3,2.4-2.2,5-2.8,7.7l15,21l9.5-14.7l3.5-2.1l15,10.1
		c0,0-5.3-18.2-10.8-23.8S640.9,220.9,637.8,222.2z"/>
	<path class="st5" d="M656.3,149.4c0,0,7.9,6.3,8.7,9.9s-1.4,11.4-1.4,11.4l-10.5-20.5L656.3,149.4z"/>
	<path class="st4" d="M653.9,146.3c0,0,14.3,31.1,16.5,41.6s1,20.3-2.8,27.6s-8,6.3-8,6.3v23.8c0,0-18.6-14.7-19.6-16.4
		s-2.8-4.9-2.8-4.9s-2.1-15.4-8.7-20c0,0-8.8,1.4-10.8-6.6s-0.4-10.9,5.3-11.6c0,0-4.6-11.5-5.6-19.2s11.9-10.1,19.6-15.1
		C642,148.8,647.8,146.9,653.9,146.3z"/>
	<polygon class="st5" points="659.5,221.9 652.7,219.3 659.1,231.1 	"/>
	<path class="st5" d="M622,188.6c0,0-4.6-1.8-9.5-8s-6.3-11.2,0.4-21.7s30.5-20.4,37.1-19.3s10.8,9.5,2.8,14.7
		c-5.5,3.4-11.5,5.9-17.8,7.4c0,0,3.8-3.1-0.3-3.9s-12.6,3.5-11.9,7s6,2.4,5.6,8s-5.3,11.6-3.5,13.7s6,3.9,2.5,4.9
		S622,188.6,622,188.6z"/>
	<line class="st3" x1="646.5" y1="194.3" x2="641.3" y2="198.5"/>
	<path class="st3" d="M644.1,197.1c0,0,6.7,6.3,18.2,1.1"/>
	<path class="st5" d="M646.5,199.2c1.6,3,4.4,5.2,7.7,6c5.6,1.4,2.8-4.9,2.8-4.9S649.3,200.2,646.5,199.2z"/>
	<path class="st1" d="M640.5,178.1c0.5,1.7,0.4,3.2-0.3,3.4s-1.8-0.9-2.3-2.6s-0.4-3.2,0.3-3.4S640,176.4,640.5,178.1z"/>
	<path class="st1" d="M658.7,172.8c0.5,1.6,0.4,3.2-0.3,3.4s-1.8-0.9-2.3-2.6s-0.4-3.2,0.3-3.4S658.1,171.2,658.7,172.8z"/>
	<path class="st3" d="M631,176.7l14.3-4.7c1.2-0.4,2.5,0.3,2.9,1.5l2,6.3c0.4,1.2-0.3,2.5-1.5,2.9l-14.3,4.7
		c-1.2,0.4-2.5-0.3-2.9-1.5l-2-6.3C629.1,178.4,629.8,177.1,631,176.7z"/>
	<line class="st3" x1="648.5" y1="170.3" x2="653.6" y2="168.6"/>
	<line class="st3" x1="630.1" y1="177.7" x2="621" y2="186.7"/>
	<line class="st3" x1="671" y1="163.3" x2="664.2" y2="169"/>
	<path class="st3" d="M654.7,167.7L669,163c1.2-0.4,2.5,0.3,2.9,1.5l2.1,6.3c0.4,1.2-0.3,2.5-1.5,2.9l-14.3,4.7
		c-1.2,0.4-2.5-0.3-2.9-1.5l-2.1-6.3C652.8,169.4,653.5,168.1,654.7,167.7z"/>
	<path class="st9" d="M632.9,172.2c0,0,4.2-5.2,10.5-4.6"/>
	<path class="st9" d="M652.1,164.9c0,0,2.8-2.8,8-1.4"/>
	<path class="st4" d="M653.2,171.5c0,0,10.5,20.3,9.4,21.7s-8,0-8,0"/>
	<path class="st4" d="M603.1,251.3c0,0-6,0-7.7,5.2c-1.8,5.2-18.2,65.1-16.5,66.8s23.8,3.1,26.3,2.5c2.5-0.7,13-41,13-41"/>
	<path class="st4" d="M611.9,324.4c0,0,1.4-7-4.6-9.8s-15.8-2.5-21.7,2.1s-7,3.5-8.4,12.3c-1.4,8.8,4.6,14.4,9.5,15.4
		s9.1,2.1,15-3.9S611.9,324.4,611.9,324.4z"/>
	<path class="st4" d="M648.7,287.6c0,0-2.5,53.5-11.5,73.5c0,0,8.8,2.8,23.1,1.4s27.7-9.1,27.7-9.1s4.9-29.4,7.3-43.7
		s3.9-22.4,3.9-22.4s-3.1,2.4-21,3.5S648.7,287.6,648.7,287.6z"/>
	<path class="st4" d="M625.9,331.4c0,0-20.3-12.6-23.1-12.6c-2.8,0-11.2,2.8-14.7,10.9s-3.1,12.2,1.4,13.6c4.6,1.4,34,4.2,37.5,4.2
		s11.9,1.8,16.8,1.8s17.9-1.4,19.6-4.2s-12.6-1.8-13.7-2.1s13.1-3.1,15.1-3.5s4.6-3.1,0.7-4.2c0,0,6.7-3.2,2.5-6l-19.5-3.4l6-1.3
		c0,0,13.7,3.7,13.5-0.5c-0.1-1.8-11.2-5.3-14.7-5.3s-22,12.6-22,12.6L625.9,331.4z"/>
	<line class="st3" x1="665.4" y1="335.3" x2="647.6" y2="333.9"/>
	<path class="st5" d="M687.3,146.7c4.4,5.5,10.4,9.5,17.1,11.5l-13.8,24.3l25.5-22.4h0.8c12.3,0,23.2-5.3,29.6-13.4L687.3,146.7z"/>
	<path class="st8" d="M716.4,97.7c-19.7,0-35.7,13.6-35.7,30.3c0,13,9.6,24,23.1,28.3l-13.8,24.3l25.5-22.4h0.8
		c19.7,0,35.7-13.6,35.7-30.3S736.1,97.7,716.4,97.7z"/>
	<path class="st1" d="M703.8,128.6c0-2.2-1.8-4-4-4s-4,1.8-4,4c0,2.2,1.8,4,4,4S703.8,130.8,703.8,128.6z"/>
	<path class="st1" d="M721.5,128.6c0-2.2-1.8-4-4-4s-4,1.8-4,4c0,2.2,1.8,4,4,4S721.5,130.8,721.5,128.6z"/>
	<circle class="st1" cx="735.2" cy="128.6" r="4"/>
	<circle class="st6" cx="653.9" cy="434.3" r="6.9"/>
	<path class="st6" d="M653.9,416.9c-6.9,0-13.1,4.1-15.9,10.4l4.6,4.1c1.5-6.2,7.8-10.1,14.1-8.5c4.6,1.1,8.1,5,8.8,9.7l4.7-4.5
		C667.5,421.3,661,416.9,653.9,416.9z"/>
	<path class="st6" d="M634.8,424.5c5.4-10.5,18.3-14.6,28.8-9.2c4.2,2.1,7.5,5.6,9.5,9.8l4.3-4.1c-7.4-13-23.9-17.6-36.9-10.3
		c-4.2,2.4-7.7,5.8-10.1,10L634.8,424.5z"/>
	<path class="st10" d="M838.5,97.4v28.4c0,3-2.4,5.4-5.4,5.4h-34.6c-3,0-5.4-2.4-5.4-5.4V91.3c0-3,2.4-5.4,5.4-5.4h30.8"/>
	<path class="st11" d="M831.4,98.5h-30.8c-0.7,0-1.3,0.6-1.3,1.3v17.7c0,0.7,0.6,1.3,1.3,1.3l0,0h30.8c0.7,0,1.3-0.6,1.3-1.3
		c0,0,0,0,0,0V99.8C832.7,99.1,832.1,98.5,831.4,98.5z M831.8,102.3l-9.8,6.1l8.8,6.5c0.5,0.4,0.6,1.1,0.2,1.6
		c-0.2,0.3-0.6,0.4-0.9,0.4c-0.2,0-0.5-0.1-0.7-0.2l-9.5-7l-3.5,2.2l-4.1-2.3l-9.7,7.2c-0.2,0.1-0.4,0.2-0.7,0.2
		c-0.6,0-1.1-0.6-1.1-1.2c0-0.3,0.2-0.6,0.4-0.8l8.8-6.5l-10-5.6c-0.6-0.3-0.7-1-0.4-1.6s1-0.7,1.6-0.4l15.2,8.4l14.3-8.8
		c0.5-0.4,1.2-0.2,1.6,0.3s0.2,1.2-0.3,1.6L831.8,102.3L831.8,102.3z"/>
	<path class="st12" d="M844,89.9c0-4.4-3.6-8-8-8s-8,3.6-8,8s3.6,8,8,8l0,0C840.4,97.9,844,94.3,844,89.9z"/>
	<path class="st10" d="M951.5,397v28.4c0,3-2.4,5.4-5.4,5.4h-34.6c-3,0-5.4-2.4-5.4-5.4v-34.5c0-3,2.4-5.4,5.4-5.4h30.8"/>
	<path class="st12" d="M957,389.4c0-4.4-3.6-8-8-8s-8,3.6-8,8s3.6,8,8,8S957,393.8,957,389.4z"/>
	<path class="st11" d="M929,393.3c-8.1,0-14.7,5.6-14.7,12.6c0.1,4.2,2.4,8,6,10.1l-0.7,5.8l6-3.7c1.1,0.2,2.2,0.3,3.3,0.3
		c8.1,0,14.7-5.6,14.7-12.6S937.1,393.3,929,393.3z"/>
</g>
<text transform="matrix(1 0 0 1 34.64 69.32)" class="st13 st14 st15">There Is</text>
<text transform="matrix(1 0 0 1 197.16 69.32)" class="st13 st14 st15 st16"> </text>
<text transform="matrix(1 0 0 1 206.52 69.32)" class="st13 st14 st15">Always</text>
<text transform="matrix(1 0 0 1 34.64 119.72)" class="st13 st14 st15 st16">A</text>
<text transform="matrix(1 0 0 1 62.65 119.72)" class="st13 st14 st15"> </text>
<text transform="matrix(1 0 0 1 74.32 119.72)" class="st13 st14 st15 st16">W</text>
<text transform="matrix(1 0 0 1 112.41 119.72)" class="st13 st14 st15">ay </text>
<text transform="matrix(1 0 0 1 169.99 119.72)" class="st13 st14 st15 st17">T</text>
<text transform="matrix(1 0 0 1 194.15 119.72)" class="st13 st14 st15">o Learn More</text>
<path class="st0" d="M1071,173"/>
</svg>
