<?xml version="1.0" encoding="utf-8"?>
<!-- Generator: Adobe Illustrator 23.0.2, SVG Export Plug-In . SVG Version: 6.00 Build 0)  -->
<svg version="1.1" id="Layer_1" xmlns="http://www.w3.org/2000/svg" xmlns:xlink="http://www.w3.org/1999/xlink" x="0px" y="0px"
	 viewBox="0 0 1065.5 2302.8" style="enable-background:new 0 0 1065.5 2302.8;" xml:space="preserve">
<style type="text/css">
	.st0{fill:#000D6B;}
	.st1{fill:#E9EAEB;}
	.st2{fill:#263238;}
	.st3{fill:none;stroke:#263238;stroke-miterlimit:10;}
	.st4{fill:none;stroke:#263238;stroke-linecap:round;stroke-linejoin:round;}
	.st5{fill:#FFFFFF;stroke:#263238;stroke-linecap:round;stroke-linejoin:round;}
	.st6{fill:#263238;stroke:#263238;stroke-linecap:round;stroke-linejoin:round;}
	.st7{fill:#2D46B9;}
	.st8{fill:#FFFFFF;}
	.st9{fill:#FF5DA2;}
	.st10{fill:none;stroke:#263238;stroke-width:2;stroke-linecap:round;stroke-linejoin:round;}
	.st11{fill-rule:evenodd;clip-rule:evenodd;fill:#2D46B9;}
	.st12{fill-rule:evenodd;clip-rule:evenodd;fill:#FFFFFF;}
	.st13{fill-rule:evenodd;clip-rule:evenodd;fill:#FF5DA2;}
	.st14{font-family:'Centaur';}
	.st15{font-size:89px;}
</style>
<title>landing</title>
<path class="st0" d="M153.5,1003.7"/>
<path class="st0" d="M153.5,956.3"/>
<g id="BACKGROUND">
	<path class="st1" d="M-0.7,0v978.5h18.2c36.5-15.4,84.9-44.2,136.8-98.1c109.5-113.8,49.8-251,159.2-447.2s294.3-82.4,553-251
		c118.7-77.4,174-126.3,199-156.6V0H-0.7z"/>
</g>
<g id="OBJECTS">
	<path class="st2" d="M605.9,1154.2c5,2.2,17.3,1.9,17.3,1.9s-2.7-8.1-2.9-8.5c-2.7-5.6-11.2-14.9-18.1-13.9c-4.5,0.8-7.5,5-6.9,9.5
		c0,0.3,0.1,0.6,0.2,0.9C596.6,1148.7,601.5,1152.4,605.9,1154.2z"/>
	<path class="st2" d="M610.1,1189.8c5.2,0.8,16.2-2.4,17-2.7c1.8,6.3,4,12.4,6.6,18.4c1.5,3.5,3.1,7,4.8,10.4c-1-1.4-1.9-2.8-2.1-3
		c-4.1-4.8-14.7-11.5-21.1-8.7c-4.1,1.9-6,6.9-4,11c0.1,0.2,0.2,0.4,0.3,0.8c2.3,4.4,8.1,6.4,12.7,7.1c4.6,0.7,14.1-1.9,16.6-2.5
		c0.7,1.3,1.3,2.7,2,4c3.2,6.3,6.4,12.6,9.3,18.9c1,2.2,2,4.4,3,6.6c-0.9-1.3-1.7-2.4-1.8-2.5c-4.1-4.8-14.7-11.5-21.1-8.7
		c-4.2,1.9-6,6.9-4.1,11c0.1,0.2,0.2,0.6,0.4,0.8c2.3,4.4,8.1,6.4,12.6,7.1c4.6,0.7,13.3-1.5,16.2-2.4c0.9,2.2,1.9,4.5,2.7,6.9
		c0.4,1.5,1.1,3,1.4,4.6c0.4,1.5,0.9,3.1,1.3,4.6c0.7,3,1.4,6.1,2.1,9c0.4,2,0.9,4,1.2,6c-1-2.2-3.1-6.5-3.3-6.9
		c-3.3-5.3-12.8-13.5-19.6-11.8c-4.4,1.3-7,5.9-5.6,10.3c0.1,0.2,0.1,0.6,0.2,0.8c1.7,4.6,7,7.6,11.5,9c4.9,1.5,15.8,0.1,17.2,0
		c0.7,3.2,1.2,6.4,1.8,9.4c1.2,6.6,2.1,12.5,2.8,17.7h4.5c-0.8-5.2-1.9-11.4-3.2-18.4c-0.7-3.3-1.4-6.9-2.2-10.4
		c3.3-1.3,6.4-2.8,9.6-4.4c3.5,3.9,12.7,8.4,13.9,9c-1.2,3.1-2.5,6-3.8,8.9c-2.5,5.9-5,11.1-7.1,15.5h5c1.9-4.1,3.9-8.6,6-13.8
		c1.3-3.1,2.5-6.4,3.9-10c1.3,0.3,12.1,2.4,17,1.3c4.5-1,10.1-3.7,12.1-8.1c2-4.1,0.3-9.1-3.8-11.1c-0.2-0.1-0.6-0.2-0.9-0.3
		c-6.6-2.2-16.7,5.3-20.5,10.3c-0.2,0.3-2.2,3.8-3.5,6c0.6-1.4,1.1-2.8,1.5-4.2c1.1-2.9,2-5.8,3.1-8.9c0.4-1.5,0.9-3.1,1.4-4.6
		c0.6-1.5,0.8-3.2,1.2-4.9c0.9-3.8,1.7-7.6,2.2-11.6c2.5,0.9,11.6,4.1,16.3,3.8c4.6-0.3,10.5-2,13.3-6.2c2.7-3.8,1.7-9-2-11.5
		c-0.2-0.1-0.4-0.3-0.8-0.4c-6.2-3.2-17.4,2.7-21.8,7.1c-0.3,0.2-3.1,3.8-4.6,5.8c0.3-2.3,0.8-4.8,1-7.1c0.9-7,1.5-13.9,2.2-21
		l0.7-6.4c0.9,0.3,11.5,4.3,16.8,4c4.6-0.3,10.5-2.1,13.3-6.2c2.7-3.8,1.7-9-2.1-11.5c-0.2-0.1-0.4-0.3-0.8-0.4
		c-6.2-3.2-17.4,2.8-21.8,7.1c-0.3,0.3-4.4,5.4-5.3,6.8c0.6-4.8,1-9.4,1.8-14.1c1-6.2,2.3-12.4,4.1-18.5c0.4,0.1,11.5,4.4,16.8,4
		c4.6-0.3,10.5-2,13.3-6.2c2.7-3.8,1.7-9-2.1-11.5c-0.2-0.1-0.4-0.3-0.8-0.4c-6.2-3.2-17.4,2.7-21.8,7.1c-0.3,0.3-4.6,5.8-5.4,6.9
		c0-0.3,0.1-0.8,0.2-1.1c1.9-6.1,4.3-11.8,7.3-17.5c1.5-3.1,3.3-6,5-8.9c2,1,11.1,5.4,15.9,5.6c4.9,0.2,10.6-0.9,13.8-4.6
		c3-3.4,2.7-8.6-0.8-11.7c-0.2-0.2-0.4-0.3-0.7-0.6c-5.9-3.9-17.6,0.8-22.5,4.6c-0.2,0.2-2.8,2.7-4.4,4.4c0.8-1.2,1.5-2.5,2.3-3.8
		c3-4.4,5.9-8.3,8.5-11.6c1.5-1.9,3-3.7,4.2-5.2c2.4,0,12.4-0.3,16.7-2.3c4.3-2,9.1-5.6,10.1-10.5c1.1-4.4-1.5-8.9-6-10
		c-0.3-0.1-0.6-0.1-0.9-0.2c-7-0.8-15.3,8.9-17.8,14.5c-0.2,0.4-2.8,8.6-2.7,8.6h0.1c-1.3,1.5-2.8,3.1-4.2,4.9
		c-2.8,3.3-5.8,7.1-8.9,11.5c-3.3,4.6-6.4,9.5-9.2,14.5c-3.1,5.6-5.8,11.5-7.7,17.6c0,0.1,0,0.1,0,0.2c0-2.1,0-7.7-0.1-8.2
		c-0.8-6.2-6-17.7-12.8-19c-4.5-0.7-8.7,2.4-9.4,7c0,0.2-0.1,0.6-0.1,0.9c-0.4,4.9,3.2,9.8,6.6,12.9c4,3.5,14.8,6.9,15.7,7.2
		c-2,6.2-3.5,12.6-4.5,19c-0.7,3.8-1.2,7.5-1.8,11.3c0-1.8,0-3.3,0-3.5c-0.8-6.2-6-17.7-12.8-18.9c-4.5-0.7-8.7,2.3-9.5,6.9
		c0,0.3-0.1,0.6-0.1,0.9c-0.4,4.9,3.2,9.8,6.6,12.9c3.4,3.1,12.7,6.2,15.3,7c-0.2,1.4-0.4,2.9-0.6,4.4c-0.9,7-1.7,14.1-2.7,20.9
		c-0.3,2.4-0.8,4.8-1.2,7.2c0-1.5,0-2.9,0-3.1c-0.8-6.2-6-17.7-12.8-18.9c-4.5-0.7-8.7,2.4-9.5,7c0,0.3-0.1,0.6-0.1,0.9
		c-0.4,4.9,3.2,9.8,6.6,12.9s11.8,5.9,14.7,6.9c-0.6,2.4-1,4.9-1.7,7.2c-0.4,1.5-0.8,3.1-1.3,4.6c-0.6,1.5-1,3.1-1.5,4.5
		c-1,2.9-2.2,5.9-3.2,8.6c-0.8,2-1.5,3.8-2.2,5.6c0.3-2.4,1-7.1,1-7.5c-0.1-5.5-1.7-10.8-4.4-15.6c0-0.7,0-1.2-0.1-1.9
		c-0.6-4.5-4.6-7.7-9.2-7.2c-0.3,0-0.6,0.1-0.9,0.1c-6.8,1.8-11.1,13.6-11.4,19.9c0,0.3,0.2,4.4,0.4,6.9c-0.3-1.4-0.7-2.9-1-4.4
		c-0.7-3-1.5-6-2.3-9.2c-0.4-1.4-0.9-3-1.4-4.6c-0.4-1.5-1.1-3.1-1.7-4.8c-1.3-3.7-2.9-7.3-4.4-11c2.7-0.7,11.8-3,15.6-5.9
		c3.8-2.9,7.6-7.5,7.6-12.4c0.1-4.5-3.4-8.4-8.1-8.5c-0.3,0-0.6,0-0.9,0c-7,0.8-12.9,11.8-14.3,17.9c0,0.3-0.4,4.9-0.7,7.3
		c-1-2.2-2-4.4-3.1-6.6c-3.1-6.2-6.4-12.5-9.7-18.7c-1-1.9-2-3.9-3-5.8c0.9-0.2,12-2.8,16.2-6c3.7-2.9,7.6-7.5,7.6-12.4
		c0.1-4.5-3.5-8.4-8.1-8.5c-0.2,0-0.6,0-0.8,0c-7,0.8-12.9,11.8-14.3,17.9c0,0.4-0.7,7-0.8,8.6c-2.2-4.2-4.4-8.4-6.3-12.7
		c-2.7-5.8-5-11.6-6.9-17.7c0.4,0,12-2.8,16.3-6c3.8-2.9,7.6-7.5,7.6-12.4c0.1-4.5-3.5-8.4-8.1-8.5c-0.2,0-0.6,0-0.8,0
		c-7,0.8-12.9,11.8-14.3,17.9c0,0.4-0.8,7.4-0.8,8.7c0-0.3-0.2-0.7-0.3-1c-1.8-6.1-2.9-12.3-3.5-18.6c-0.4-3.4-0.6-6.9-0.7-10.1
		c2.2-0.2,12.3-1.7,16.4-4.1c4.2-2.5,8.4-6.6,8.9-11.5c0.7-4.5-2.5-8.7-7-9.3c-0.3,0-0.7-0.1-0.9-0.1c-7,0-14.2,10.3-16.2,16.3
		c0,0.3-0.8,3.8-1.3,6.2c0-1.4,0-3,0-4.4c0-5.3,0.3-10.2,0.7-14.4c0.2-2.4,0.4-4.6,0.7-6.6c2-1.4,10.1-7.1,12.6-11.2
		c2.5-4.1,4.4-9.7,2.5-14.3c-1.5-4.3-6.2-6.5-10.5-5.1c-0.3,0.1-0.6,0.2-0.9,0.3c-6.2,3.2-7.9,15.7-6.9,21.9c0,0.6,2.4,8.7,2.5,8.6
		h0.1c-0.2,2-0.6,4.1-0.8,6.4c-0.4,4.3-0.9,9.2-1,14.5c-0.2,5.8,0,11.4,0.4,17.2c0.4,6.4,1.5,12.7,3.2,18.9v0.2
		c-1.1-1.8-4.4-6.4-4.6-6.8c-4.1-4.8-14.7-11.5-21.1-8.7c-4.2,1.9-6,6.9-4.1,11c0.1,0.2,0.2,0.6,0.4,0.8
		C599.8,1187,605.4,1189.1,610.1,1189.8z"/>
	<path class="st2" d="M730,1156.9c0,0,2.2-8.2,2.2-8.7c0.9-6.2-1.1-18.6-7.4-21.7c-4.2-1.9-9.1,0-11,4.1c-0.1,0.3-0.2,0.6-0.3,0.9
		c-1.7,4.6,0.4,10.3,3,14.3C719.6,1150.4,730,1156.9,730,1156.9z"/>
	<ellipse class="st3" cx="952" cy="579.2" rx="93.8" ry="93.8"/>
	<ellipse class="st3" cx="952" cy="579.2" rx="87" ry="87"/>
	<circle class="st2" cx="952" cy="579.2" r="4.9"/>
	<polyline class="st4" points="908.1,579.2 952,579.2 952,525.4 	"/>
	<path class="st5" d="M16.1,1287.6c0,0,17.7-89.5,17.7-96.6c-0.7-21.8-3-43.4-7.1-64.7c-5.9-31.8-23.6-110.8-28.3-123.6
		c-4.6-12.8,12.9-36.5,17.7-63.6c4.8-27.1,15.3-53,29.4-69.5c14.2-16.5,64.7-53,64.7-53h25.9c0,0-9.4,155.5,3.5,179
		c12.9,23.6,36.5,73,38.8,94.3s-11.8,56.5-9.4,76.6c2.3,20-17.7,53-22.4,67.2c-4.8,14.2-2.2,58.8-2.2,58.8"/>
	<path class="st6" d="M107.9,860L89.1,882c0,0-4.6,25.2-7.1,37c-1.5,7.3-3.9,14.5-7.1,21.2c0,0,8.2,18.8,12.9,25.9
		c2.9,4.4,5.3,9.2,7.1,14.2l12.9,8.3V860L107.9,860z"/>
	<path class="st4" d="M42.9,943.1c6.3-0.9,12.7-1.3,19-1.3"/>
	<path class="st4" d="M75.5,872.4c0,0,13.6,4.1,13.6,9.5"/>
	<path class="st5" d="M-6.2,1302.9c0,0,5.9-55.9,5.9-61.9v-17.7c0-5.9,5.9-10.3,5.9-10.3s57.4-11.7,114.8,7.4
		c57.4,19.1,44.2,50,44.2,50l-3,44.2"/>
	<path class="st6" d="M123.2,640.9h685.6c11.7,0,21.1,9.5,21.1,21.1v407.7c0,11.7-9.5,21.1-21.1,21.1H123.2
		c-11.7,0-21.1-9.5-21.1-21.1V662.2C102.1,650.5,111.6,640.9,123.2,640.9z"/>
	<path class="st5" d="M148.6,665.7h634.7c11.7,0,21.1,9.5,21.1,21.1v358.2c0,11.7-9.5,21.1-21.1,21.1H148.6
		c-11.7,0-21.1-9.5-21.1-21.1V686.9C127.5,675.2,137,665.7,148.6,665.7z"/>
	<rect x="573.8" y="681.9" class="st5" width="180.8" height="115.6"/>
	<rect x="573.8" y="784.7" class="st6" width="180.8" height="12.8"/>
	<rect x="573.8" y="789.3" class="st5" width="180.8" height="3.8"/>
	<circle class="st7" cx="661.1" cy="739.2" r="26.7"/>
	<polygon class="st8" points="676.5,739.8 653.4,726.5 653.4,753.1 	"/>
	<rect x="573.8" y="810.1" class="st5" width="180.8" height="115.6"/>
	<rect x="573.8" y="912.9" class="st6" width="180.8" height="12.8"/>
	<rect x="573.8" y="917.5" class="st5" width="180.8" height="3.8"/>
	<circle class="st7" cx="661.1" cy="867.3" r="26.7"/>
	<polygon class="st8" points="676.5,868 653.4,854.6 653.4,881.4 	"/>
	<rect x="573.8" y="938.3" class="st5" width="180.8" height="115.6"/>
	<rect x="573.8" y="1041.1" class="st6" width="180.8" height="12.8"/>
	<rect x="573.8" y="1045.6" class="st5" width="180.8" height="3.8"/>
	<circle class="st7" cx="661.1" cy="995.6" r="26.7"/>
	<polygon class="st8" points="676.5,996.2 653.4,982.8 653.4,1009.5 	"/>
	<path class="st9" d="M204.4,720.5h307.8c7.1,0,12.8,5.8,12.8,12.8v313.3c0,7.1-5.8,12.8-12.8,12.8H204.4c-7.1,0-12.8-5.8-12.8-12.8
		V733.3C191.6,726.3,197.3,720.5,204.4,720.5z"/>
	<path class="st5" d="M70.3,1026.2c0,0,21.2-46,23.5-63.7s-2.2-58.9,3.5-75.5s2.3-37.7,16.5-45.9c14.2-8.2,33-5.9,36.5,27.1
		c3.5,33,0,84.9,1.2,102.5c1.2,17.7,31.8,43.6,33,81.2c1.2,37.7-11.8,76.6-15.3,93.1c-3.5,16.5-17.7,55.3-17.7,55.3"/>
	<path class="st4" d="M103.2,879.3c7-1.7,14.3-1.8,21.2-0.4c6.4,1.2,12.6,2.8,18.8,4.6c0.7-7.9,0.7-15.7,0-23.6
		c0,0,1.5-13.5-6.6-18.9c-8.2-5.4-24.5-4.1-29.9,8.2C101.4,861.6,103.2,879.3,103.2,879.3z"/>
	<path class="st4" d="M132.6,901c0,0-27.2-8.2-34,2.8"/>
	<path class="st4" d="M105.5,907.8c0,0,8.2,2.8,25.8,1.3"/>
	<path class="st6" d="M814.8,709.3c0,0-30.7,9.4-28.3,17.7c2.3,8.3,58.9,78.9,68.4,76.6c9.5-2.3,20-33,20-54.2
		C874.9,728.1,814.8,709.3,814.8,709.3z"/>
	<path class="st5" d="M1065,917.4l-28.9-35c0,0-37.7-88.3-48.2-105.9c-10.6-17.7-34.2-68.4-42.4-70.6c-8.2-2.2-20-3.5-23.6-5.9
		c-3.5-2.3-17.7-7.1-36.5-8.2c-18.8-1.2-57.8-9.5-74.3-14.4c-16.5-4.8-17.7,0-37.7,7.1s-80.1,28.3-84.8,31.8s1.2,14.2,16.5,20
		c15.3,5.9,22.4,1.2,40.1-1.2c17.7-2.4,44.8-7,48.4-7c3.5,0,29.4,3.5,34.2,5.9c4.6,2.3,16.5,21.1,16.5,30.7c-0.1,6.8-1,13.4-2.3,20
		l-0.4,81.8c0,0,37.3,42,63.1,56.4c25.8,14.4,38.3,15.3,38.3,15.3l40.2,37.3"/>
	<path class="st5" d="M921.9,699.8c7.6,8,14.1,17.2,18.8,27.1"/>
	<path class="st5" d="M1032.7,1050.6l-89.5-100.9c0,0-41.3-17.7-68.3-35.3c-27.1-17.7-60.1-74.3-68.4-87.2
		c-8.3-12.9-25.9-38.8-40.1-48.2c-14.2-9.4-39.9-38.8-45.8-50.7c-5.9-11.7,4.6-27.1,17.7-28.3c12.9-1.2,67.2,24.8,76.6,38.8
		c9.4,14.2,36.5,43.6,36.5,43.6"/>
	<path class="st4" d="M785.3,741.1c0,0-14.2,14.2-15.3,21.1"/>
	<path class="st4" d="M795.9,742.3c0,0-10.6,16.5-17.7,22.4"/>
	<path class="st4" d="M773.5,718.7c-15.3,10.6-25.9,30.7-25.9,30.7s-25.2-9.2-27.1-21.1c-1.9-12.1,1.9-24.1,17.7-28.3
		C753.9,695.7,773.5,718.7,773.5,718.7z"/>
	<path class="st5" d="M1063.7,1121.2c-4.4-7.4-103-122.8-107.4-137.7c-4.4-14.8,13.3-48.6,41.2-79.5c14.7-16.3,51.6-42.9,72.1-21.2
		c8.5,9,15.7,19.9,24.9,28.7"/>
	<path class="st5" d="M441.8,1065.8l4-63c1.2,5.1,2.8,10.1,4.8,14.8c2,4.1,43.3-14.8,43.3-14.8s-10.8-73-17.7-99.4
		s-8.9-60.9-14.8-63s-82.6-37.8-84.5-37.8s-43.3,4.1-43.3,4.1l-66.9,40.6l10.1,218.5L441.8,1065.8z"/>
	<path class="st4" d="M388.7,896.6c0,2.2-0.2,4.4-0.3,6.5"/>
	<path class="st4" d="M384.7,838.4c2.3,16,3.8,32.3,4.2,48.6"/>
	<line class="st4" x1="438.1" y1="891" x2="438.3" y2="880.3"/>
	<line class="st4" x1="436.1" y1="998.8" x2="438" y2="899"/>
	<polygon class="st5" points="502.1,1065.8 497.2,1024.5 450.9,1033.3 466.7,1065.8 	"/>
	<path class="st5" d="M443.5,1014.2c8.1-3.7,15.9-7.9,23.6-12.5c13.3-8.1,25.8-10.3,29.4-3.7s11.7,25,8.9,28
		c-3,3-46.4,16.9-50.8,16.9c-4.4,0-12.5-14.8-12.5-14.8C441.2,1023.4,441.8,1018.6,443.5,1014.2z"/>
	<path class="st5" d="M341.6,787c0,0-7.6,6.1-10.2,10.2c-2.4,4.6-4.3,9.7-5.4,14.8l29.1,40.6l18.3-28.4l6.8-4.1l29.1,19.6
		c0,0-10.2-35.2-21-46C377.5,782.9,347.6,784.2,341.6,787z"/>
	<path class="st6" d="M377.4,646.1c0,0,15.4,12.3,16.8,19.1c1.5,6.9-2.7,22-2.7,22l-20.3-39.6L377.4,646.1z"/>
	<path class="st5" d="M372.7,640.2c0,0,27.8,60.2,31.8,80.4c4,20.3,2,39.3-5.4,53.4c-7.4,14.2-15.6,12.2-15.6,12.2v46
		c0,0-35.9-28.4-37.8-31.8c-2-3.3-5.4-9.5-5.4-9.5s-4.1-29.8-16.9-38.6c0,0-16.9,2.8-21-12.8c-4.1-15.6-0.7-21,10.2-22.4
		c0,0-8.9-22.4-10.8-37.2c-2-14.8,23-19.6,37.8-29.1C349.7,645,361,641.4,372.7,640.2z"/>
	<polygon class="st6" points="383.6,786.3 370.5,781.3 382.8,803.9 	"/>
	<path class="st6" d="M311.2,722.1c0,0-8.9-3.4-18.3-15.5c-9.4-12.1-12.2-21.7,0.7-41.9c12.8-20.3,58.9-39.3,71.7-37.3
		s21,18.3,5.4,28.4c-10.6,6.5-22.4,11.4-34.5,14.2c0,0,7.4-6.1-0.7-7.4c-8.1-1.3-24.2,6.8-23,13.5c1.2,6.8,11.5,4.8,10.8,15.5
		c-0.7,10.7-10.2,22.4-6.8,26.4s11.5,7.4,4.8,9.5C314.6,729.5,311.2,722.1,311.2,722.1z"/>
	<line class="st4" x1="358.6" y1="732.9" x2="348.4" y2="741"/>
	<path class="st4" d="M353.8,738.3c0,0,12.8,12.2,35.2,2"/>
	<path class="st6" d="M358.6,742.3c3.1,5.8,8.5,10,14.9,11.5c10.8,2.7,5.4-9.5,5.4-9.5S364,744.4,358.6,742.3z"/>
	<path class="st2" d="M346.8,701.7c1.1,3.2,0.8,6.2-0.7,6.6c-1.4,0.4-3.4-1.8-4.4-5c-1-3.2-0.8-6.2,0.7-6.6
		C343.8,696.3,345.8,698.4,346.8,701.7z"/>
	<path class="st2" d="M382,691.4c1,3.2,0.8,6.2-0.7,6.6c-1.4,0.4-3.4-1.8-4.4-4.9c-1-3.2-0.8-6.2,0.7-6.6
		C379,686.1,381,688.2,382,691.4z"/>
	<path class="st4" d="M328.6,698.8l27.7-9.1c2.3-0.8,4.9,0.6,5.6,2.9l4,12.2c0.8,2.3-0.6,4.9-2.9,5.6l-27.7,9.1
		c-2.3,0.8-4.9-0.6-5.6-2.9l-4-12.2C324.9,702.1,326.3,699.6,328.6,698.8z"/>
	<line class="st4" x1="362.4" y1="686.6" x2="372.3" y2="683.3"/>
	<line class="st4" x1="326.9" y1="700.8" x2="309.2" y2="718.2"/>
	<line class="st4" x1="405.8" y1="673" x2="392.8" y2="684.1"/>
	<path class="st4" d="M374.4,681.6l27.7-9.2c2.3-0.8,4.9,0.6,5.6,2.9l4,12.1c0.8,2.3-0.6,4.9-2.9,5.6l-27.7,9.2
		c-2.3,0.8-4.9-0.6-5.6-2.9l-4-12.1C370.7,684.9,372,682.3,374.4,681.6z"/>
	<path class="st10" d="M332.2,690.2c0,0,8.1-10.2,20.4-8.9"/>
	<path class="st10" d="M369.3,676c0,0,5.4-5.4,15.5-2.8"/>
	<path class="st5" d="M371.4,688.9c0,0,20.3,39.2,18.3,41.9c-2,2.8-15.5,0-15.5,0"/>
	<path class="st5" d="M274.7,843.1c0,0-11.5,0-14.9,10.2S224.6,979.1,228,982.5s46,6.1,50.8,4.8c4.8-1.3,25-79.1,25-79.1"/>
	<path class="st5" d="M291.6,984.5c0,0,2.7-13.5-8.9-18.9c-11.5-5.4-30.4-4.8-41.9,4.1c-11.5,8.7-13.5,6.8-16.3,23.7
		c-2.8,16.9,8.9,27.8,18.3,29.8c9.4,2,17.7,4.1,29.1-7.4C283.3,1004.1,291.6,984.5,291.6,984.5z"/>
	<path class="st5" d="M362.8,913.3c0,0-4.8,103.5-22.4,142.1c0,0,16.9,5.4,44.7,2.7c27.8-2.8,53.4-17.7,53.4-17.7
		s9.5-56.8,14.2-84.5c4.8-27.8,7.4-43.3,7.4-43.3s-6.1,4.8-40.6,6.8C385.1,921.3,362.8,913.3,362.8,913.3z"/>
	<path class="st5" d="M318.6,998c0,0-39.2-24.2-44.6-24.2s-21.7,5.4-28.4,21c-6.8,15.6-6.1,23.6,2.8,26.3c8.9,2.8,65.6,8.1,72.4,8.1
		c6.8,0,23,3.4,32.4,3.4s34.5-2.8,37.8-8.1c3.3-5.3-24.2-3.4-26.3-4.1c-2.1-0.7,25.3-6,29.1-6.8c3.8-0.8,8.9-6.1,1.3-8.1
		c0,0,12.8-6.1,4.8-11.5l-37.8-6.6l11.7-2.4c0,0,26.4,7.1,26.1-1c-0.1-3.4-21.7-10.2-28.4-10.2s-42.6,24.2-42.6,24.2L318.6,998z"/>
	<line class="st4" x1="395.1" y1="1005.4" x2="360.6" y2="1002.8"/>
	<path class="st6" d="M437.4,640.9c8.6,10.5,20.1,18.3,33.1,22.2l-26.7,46.9l49.4-43.3h1.4c23.9,0,44.9-10.3,57.3-25.9H437.4z"/>
	<path class="st9" d="M493.7,546.2c-38.1,0-68.9,26.2-68.9,58.5c0,25.1,18.6,46.4,44.7,54.8l-26.7,46.9l49.4-43.2h1.4
		c38.1,0,68.9-26.2,68.9-58.5S531.7,546.2,493.7,546.2z"/>
	<path class="st2" d="M469.3,606c0-4.2-3.4-7.6-7.6-7.6s-7.6,3.4-7.6,7.6c0,4.2,3.4,7.6,7.6,7.6S469.3,610.2,469.3,606L469.3,606z"
		/>
	<path class="st2" d="M503.4,606c0-4.2-3.4-7.6-7.6-7.6c-4.2,0-7.6,3.4-7.6,7.6c0,4.2,3.4,7.6,7.6,7.6
		C500,613.6,503.4,610.2,503.4,606L503.4,606z"/>
	<circle class="st2" cx="529.9" cy="606" r="7.6"/>
	<circle class="st7" cx="372.7" cy="1196.7" r="13.3"/>
	<path class="st7" d="M372.7,1163.1c-13.3,0-25.3,7.9-30.7,20l8.9,8c3-12.1,15.2-19.5,27.2-16.5c9,2.2,15.6,9.6,16.9,18.7l9.1-8.6
		C399.1,1171.7,386.6,1163.1,372.7,1163.1z"/>
	<path class="st7" d="M336,1177.7c10.4-20.3,35.3-28.3,55.6-17.9c8.1,4.1,14.5,10.7,18.4,18.9l8.3-8c-14.3-25.1-46.1-34-71.4-19.8
		c-8.1,4.5-14.7,11.2-19.4,19.1L336,1177.7z"/>
	<path class="st11" d="M729.5,545.7v54.9c0,5.8-4.6,10.5-10.5,10.5h-66.8c-5.8,0-10.5-4.6-10.5-10.5v-66.7c0-5.8,4.6-10.5,10.5-10.5
		h59.6"/>
	<path class="st12" d="M715.9,547.8h-59.6c-1.3,0-2.4,1.1-2.4,2.4v34.3c0,1.3,1.1,2.4,2.4,2.4h59.6c1.3,0,2.4-1.1,2.4-2.4v-34.3
		C718.3,548.9,717.3,547.8,715.9,547.8z M716.8,555.2l-19,11.8l16.9,12.5c1,0.8,1.2,2.1,0.4,3.1c-0.4,0.6-1.1,0.9-1.8,0.9
		c-0.4,0-0.9-0.1-1.3-0.4l-18.4-13.6l-6.9,4.2l-8-4.4l-18.7,13.8c-0.3,0.2-0.9,0.4-1.3,0.4c-1.2,0-2.2-1-2.2-2.2
		c0-0.7,0.3-1.3,0.9-1.8l17-12.6l-19.4-10.7c-1.1-0.7-1.4-2-0.8-3c0.7-1.1,2-1.4,3-0.8l29.3,16.3l27.7-17c1-0.7,2.4-0.4,3.1,0.6
		c0.7,1,0.4,2.4-0.6,3.1C716.9,555.3,716.8,555.3,716.8,555.2L716.8,555.2z"/>
	<path class="st13" d="M740.2,531.1c0-8.5-7-15.5-15.5-15.5c-8.5,0-15.5,7-15.5,15.5c0,8.5,7,15.5,15.5,15.5l0,0
		C733.2,546.5,740.2,539.7,740.2,531.1z"/>
	<path class="st11" d="M948,1124.6v54.9c0,5.8-4.6,10.5-10.5,10.5h-66.8c-5.8,0-10.5-4.6-10.5-10.5v-66.7c0-5.8,4.6-10.5,10.5-10.5
		h59.6"/>
	<path class="st13" d="M958.7,1110c0-8.5-7-15.5-15.5-15.5s-15.5,7-15.5,15.5c0,8.5,7,15.5,15.5,15.5S958.7,1118.5,958.7,1110z"/>
	<path class="st12" d="M904.5,1117.7c-15.6,0-28.3,10.8-28.3,24.2c0.2,8.1,4.5,15.4,11.5,19.5l-1.3,11.3l11.6-7.2
		c2.1,0.4,4.3,0.7,6.5,0.7c15.6,0,28.3-10.8,28.3-24.2S920.3,1117.7,904.5,1117.7z"/>
</g>
<text transform="matrix(1.0256 0 0 1 36.4438 159.9136)" class="st0 st14 st15">There Is Always A Way </text>
<text transform="matrix(1.0256 0 0 1 36.4438 234.3135)" class="st0 st14 st15">To Learn More</text>
</svg>
