<?xml version="1.0" encoding="utf-8"?>
<!-- Generator: Adobe Illustrator 23.0.2, SVG Export Plug-In . SVG Version: 6.00 Build 0)  -->
<svg version="1.1" id="Layer_1" xmlns="http://www.w3.org/2000/svg" xmlns:xlink="http://www.w3.org/1999/xlink" x="0px" y="0px"
	 viewBox="0 0 1076.4 152" style="enable-background:new 0 0 1076.4 152;" xml:space="preserve">
<style type="text/css">
	.st0{fill:#000D6B;}
	.st1{fill:#F037A5;}
	.st2{fill:none;}
</style>
<polygon class="st0" points="102.5,116.8 89.7,116.6 67.7,64.4 67.7,125.5 50.4,125.5 50.4,37.6 72,37.6 96.2,92.1 123.6,37.6 
	140.1,37.6 "/>
<path class="st1" d="M124.3,87.2c1.3-3.4,3.4-7.8,6.6-12.4c3.8-5.3,7.9-9.1,11.1-11.6c0,21,0,42,0,63h-17.7
	C124.3,113.2,124.3,100.2,124.3,87.2z"/>
<polygon class="st0" points="186.8,37.6 207.8,37.6 242.7,125.5 221.4,125.5 196.6,58.3 171.4,125.5 151.3,125.5 "/>
<path class="st0" d="M247.9,112.6c4.1,3.7,12.7,10.6,25.7,13.3c4,0.8,16.4,3.3,28.9-2.3c6-2.7,9.1-6,10-6.9
	c4.1-4.6,5.6-9.5,6.3-12.1c0.3-12-3.2-18.1-6.5-21.4c-3.2-3.2-9.1-5.4-20.9-9.7c-10.4-3.8-15.2-4.9-17-9.3c-1.1-2.8-0.9-6.4,1-8.7
	c3.6-4.2,12.3-2,17.9-0.5c4.1,1.1,7.1,1.8,10.7,4c4.8,2.8,7.1,3.2,7,3.4c0,0.1-0.6,0.1-0.6,0.1s0.1,0,0.6-0.1
	c2.2-5.5,4.4-11,6.6-16.4l0,0c-6.6-3.8-18.4-9.4-32.8-9.3c-8.3,0.1-13.3,2-15.6,2.9c-2.9,1.3-8.8,3.8-12.4,9.6
	c-2.1,3.3-3.1,6.9-3.1,6.9s-0.2,0.8-1.3,6c0.2,10.1,4.4,14.9,6,16.5c1.6,1.6,3.2,2.5,6,4.2c2.3,1.3,6.5,3.7,12.6,5.7
	c5.4,1.8,8.3,2,13.3,4.3c1.2,0.6,3.3,1.6,5,3.8c1.2,1.6,1.8,3.2,2,4.2c0,1.4-0.2,5.3-3.1,7.7c-0.6,0.5-2.6,1.9-9.7,1.4
	c-6.6-0.5-11.5-2.2-12.4-2.6c-4-1.4-10.1-4.2-16.5-9.6C253.1,102.6,250.5,107.6,247.9,112.6z"/>
<rect x="325.1" y="37.7" class="st0" width="70.9" height="16.5"/>
<path class="st0" d="M350.4,64.4c1.1-0.9,4.3-3.3,9.2-3.6c5.8-0.3,9.8,2.8,10.7,3.6c0,20.5,0,40.9,0,61.4h-19.9V64.4z"/>
<polygon class="st0" points="472.5,125.8 406.6,125.8 406.3,37.7 471.2,37.7 471.2,54.2 426,54.2 426.1,109.8 472.5,109.8 "/>
<polygon class="st1" points="438.9,89.8 466.7,89.8 466.7,73.8 442.3,73.8 "/>
<path class="st2" d="M566.8,59.5"/>
<path class="st0" d="M540,95.3c2.6-1.1,8.1-3.8,12.4-9.8c6.2-8.6,5.4-17.9,5.1-20.3c0-2.4-0.2-10.3-6-17.5c-0.8-1-5.1-6.1-12.7-8.7
	c-2.5-0.8-4.7-1.2-6.3-1.3h-44.3v88.1h20l0.1-28.6h12.3l15.8,28.6h22C552.3,115.7,546.1,105.5,540,95.3z M527.4,80.8H508V53.8h19.4
	c6.7,0.9,11.8,6.6,11.9,13.4C539.3,74.1,534.2,79.9,527.4,80.8z"/>
<path class="st2" d="M498.9,40.4"/>
<path class="st0" d="M609.1,99.9c0.2-4.5,1.2-12.1,5.5-20.3c5.1-9.9,12.2-15.3,13.9-16.6c4.9-3.6,9.4-5.4,11.1-6
	c2.3-0.8,7.7-2.8,13.8-2.6c11.8,0.4,20,8.5,22.5,11.1c5.9-2.8,11.7-5.5,17.6-8.3c-2.6-3.6-8.3-10.3-17.9-15.1
	c-11.3-5.6-21.7-5.2-26.2-4.7c-3.6,0.1-18,0.8-30.1,12.3c-9.7,9.2-12.4,20.1-13.2,24.1c-0.4,4.3-0.5,10,0.5,16.3
	C607.3,93.8,608.1,97.1,609.1,99.9z"/>
<path class="st1" d="M625.3,82.4c1.4,14.1,11.7,25.3,24.4,27.2c15.1,2.3,25.7-9.7,26.3-10.5c5.7,2.5,11.5,5,17.2,7.5
	c-2.8,4-10.2,13.3-22.8,17.9c-7,2.5-13.2,2.7-16.2,2.8c-4,0.1-7.6,0.2-11.9-1.4c-4.1-1.5-7-3.8-8.7-5.4c-2.5-1.9-7-5.8-9.7-12.4
	C618.8,95.8,624.3,84.3,625.3,82.4z"/>
<polygon class="st0" points="763.2,125.8 707.5,125.8 707.5,37.8 727.3,37.8 727.2,108.5 763.3,108.6 "/>
<path class="st1" d="M770.7,113v13.7h27.5V113H770.7z M793.4,122.6h-18.3v-5h18.3V122.6z"/>
<path class="st1" d="M807.2,113v13.7h27.5V113H807.2z M829.9,122.6h-18.3v-5h18.3V122.6z"/>
<path class="st1" d="M843.8,113v13.7h27.5V113H843.8z M866.5,122.6h-18.3v-5h18.3V122.6z"/>
<path class="st1" d="M770.5,58.3V72H798V58.3C798,58.3,770.5,58.3,770.5,58.3z M793.3,67.9H775v-5h18.3V67.9z"/>
<path class="st1" d="M807.2,58.3V72h27.5V58.3C834.7,58.3,807.2,58.3,807.2,58.3z M829.9,67.9h-18.3v-5h18.3V67.9z"/>
<path class="st1" d="M843.7,58.3V72h27.5V58.3C871.1,58.3,843.7,58.3,843.7,58.3z M866.4,67.9h-18.3v-5h18.3V67.9z"/>
<rect x="775.2" y="72" class="st1" width="4.8" height="41"/>
<rect x="788.9" y="72" class="st1" width="4.8" height="41"/>
<rect x="811.7" y="72" class="st1" width="4.8" height="41"/>
<rect x="825.1" y="72" class="st1" width="4.8" height="41"/>
<rect x="847.9" y="72" class="st1" width="4.8" height="41"/>
<rect x="861.7" y="72" class="st1" width="4.8" height="41"/>
<path class="st1" d="M876,59.5c-1-0.8-52.3-40.6-52.4-40.7c-0.8-0.6-1-1-1.8-1.4c-0.2-0.1-0.5-0.2-0.8-0.2c-0.4,0-0.8,0.2-1,0.3
	c-0.7,0.4-0.9,0.7-1.5,1.2c-17.2,13.5-34.4,27-51.6,40.5c-1.1,0.3-1.7,1.4-1.5,2.3c0.1,0.7,0.7,1.2,1.4,1.4c36,0,71.9,0,107.9,0
	c0.1,0,1.1,0.1,1.7-0.6C876.8,61.6,876.8,60.4,876,59.5z M864.7,57.9c-0.5,0.5-1.3,0.5-1.3,0.5c-28.4,0-56.8,0-85.3,0
	c-0.6-0.2-1-0.6-1.1-1.1c-0.2-0.7,0.3-1.5,1.2-1.8c13.6-10.3,27.2-20.6,40.8-30.9c0.5-0.4,0.7-0.6,1.2-0.9c0.2-0.1,0.5-0.3,0.8-0.3
	c0.3,0,0.5,0.1,0.7,0.2c0.6,0.3,0.8,0.6,1.4,1.1c0,0,40.6,30.5,41.4,31.1C865.1,56.4,865.1,57.3,864.7,57.9z"/>
<path class="st1" d="M820.9,35.5c-5.1,0-9.3,4.2-9.3,9.3s4.2,9.3,9.3,9.3s9.3-4.2,9.3-9.3S826.1,35.5,820.9,35.5z M820.9,49.6
	c-2.7,0-4.8-2.3-4.8-5.1s2.2-5.1,4.8-5.1c2.7,0,4.8,2.3,4.8,5.1C825.8,47.3,823.6,49.6,820.9,49.6z"/>
<path class="st0" d="M881.2,112.6c4.1,3.7,12.7,10.6,25.7,13.3c4,0.8,16.4,3.3,28.8-2.3c6-2.7,9.1-6,10-6.9
	c4.1-4.6,5.6-9.5,6.3-12.1c0.3-12-3.2-18.1-6.5-21.4c-3.2-3.2-9.1-5.4-20.9-9.7c-10.4-3.8-15.2-4.9-17-9.3c-1.1-2.8-0.9-6.4,1-8.7
	c3.6-4.2,12.3-2,17.9-0.5c4.1,1.1,7.1,1.8,10.7,4c4.8,2.8,7.1,3.2,7,3.4c0,0.1-0.6,0.1-0.6,0.1s0.1,0,0.6-0.1
	c2.2-5.5,4.4-11,6.6-16.4l0,0c-6.6-3.8-18.4-9.4-32.8-9.3c-8.3,0.1-13.3,2-15.6,2.9c-2.9,1.3-8.8,3.8-12.4,9.6
	c-2.1,3.3-3.1,6.9-3.1,6.9s-0.2,0.8-1.3,6c0.2,10.1,4.4,14.9,6,16.5c1.6,1.6,3.2,2.5,6,4.2c2.3,1.3,6.5,3.7,12.6,5.7
	c5.4,1.8,8.3,2,13.3,4.3c1.2,0.6,3.3,1.6,5,3.8c1.2,1.6,1.8,3.2,2,4.2c0,1.4-0.2,5.3-3.1,7.7c-0.6,0.5-2.6,1.9-9.7,1.4
	c-6.6-0.5-11.5-2.2-12.4-2.6c-4-1.4-10.1-4.2-16.5-9.6C886.4,102.6,883.8,107.6,881.2,112.6z"/>
<path class="st0" d="M960.6,112.6c4.1,3.7,12.7,10.6,25.7,13.3c4,0.8,16.4,3.3,28.8-2.3c6-2.7,9.1-6,10-6.9
	c4.1-4.6,5.6-9.5,6.3-12.1c0.3-12-3.2-18.1-6.5-21.4c-3.2-3.2-9.1-5.4-20.9-9.7c-10.4-3.8-15.2-4.9-17-9.3c-1.1-2.8-0.9-6.4,1-8.7
	c3.6-4.2,12.3-2,17.9-0.5c4.1,1.1,7.1,1.8,10.7,4c4.8,2.8,7.1,3.2,7,3.4c0,0.1-0.6,0.1-0.6,0.1s0.1,0,0.6-0.1
	c2.2-5.5,4.4-11,6.6-16.4l0,0c-6.6-3.8-18.4-9.4-32.8-9.3c-8.3,0.1-13.3,2-15.6,2.9c-2.9,1.3-8.8,3.8-12.4,9.6
	c-2.1,3.3-3.1,6.9-3.1,6.9s-0.2,0.8-1.3,6c0.2,10.1,4.4,14.9,6,16.5c1.6,1.6,3.2,2.5,6,4.2c2.3,1.3,6.5,3.7,12.6,5.7
	c5.4,1.8,8.3,2,13.3,4.3c1.2,0.6,3.3,1.6,5,3.8c1.2,1.6,1.8,3.2,2,4.2c0,1.4-0.2,5.3-3.1,7.7c-0.6,0.5-2.6,1.9-9.7,1.4
	c-6.6-0.5-11.5-2.2-12.4-2.6c-4-1.4-10.1-4.2-16.5-9.6C965.8,102.6,963.2,107.6,960.6,112.6z"/>
</svg>
