<?xml version="1.0" encoding="utf-8"?>
<!-- Generator: Adobe Illustrator 23.0.2, SVG Export Plug-In . SVG Version: 6.00 Build 0)  -->
<svg version="1.1" id="Layer_1" xmlns="http://www.w3.org/2000/svg" xmlns:xlink="http://www.w3.org/1999/xlink" x="0px" y="0px"
	 viewBox="0 0 150 150" style="enable-background:new 0 0 150 150;" xml:space="preserve">
<style type="text/css">
	.st0{fill:#F037A5;}
</style>
<path class="st0" d="M27.7,111v13.7h27.5V111H27.7z M50.4,120.6H32.1v-5h18.3V120.6z"/>
<path class="st0" d="M64.2,111v13.7h27.5V111H64.2z M86.9,120.6H68.6v-5h18.3V120.6z"/>
<path class="st0" d="M100.8,111v13.7h27.5V111H100.8z M123.5,120.6h-18.3v-5h18.3V120.6z"/>
<path class="st0" d="M27.5,56.3V70H55V56.3H27.5z M50.3,65.9H32v-5h18.3V65.9z"/>
<path class="st0" d="M64.2,56.3V70h27.5V56.3H64.2z M86.9,65.9H68.6v-5h18.3V65.9z"/>
<path class="st0" d="M100.7,56.3V70h27.5V56.3C128.1,56.3,100.7,56.3,100.7,56.3z M123.4,65.9h-18.3v-5h18.3V65.9z"/>
<rect x="32.2" y="70" class="st0" width="4.8" height="41"/>
<rect x="45.9" y="70" class="st0" width="4.8" height="41"/>
<rect x="68.7" y="70" class="st0" width="4.8" height="41"/>
<rect x="82.1" y="70" class="st0" width="4.8" height="41"/>
<rect x="104.9" y="70" class="st0" width="4.8" height="41"/>
<rect x="118.7" y="70" class="st0" width="4.8" height="41"/>
<path class="st0" d="M133,57.5c-1-0.8-52.3-40.6-52.4-40.7c-0.8-0.6-1-1-1.8-1.4c-0.2-0.1-0.5-0.2-0.8-0.2c-0.4,0-0.8,0.2-1,0.3
	c-0.7,0.4-0.9,0.7-1.5,1.2c-17.2,13.5-34.4,27-51.6,40.5c-1.1,0.3-1.7,1.4-1.5,2.3c0.1,0.7,0.7,1.2,1.4,1.4c36,0,71.9,0,107.9,0
	c0.1,0,1.1,0.1,1.7-0.6C133.8,59.6,133.8,58.4,133,57.5z M121.7,55.9c-0.5,0.5-1.3,0.5-1.3,0.5c-28.4,0-56.8,0-85.3,0
	c-0.6-0.2-1-0.6-1.1-1.1c-0.2-0.7,0.3-1.5,1.2-1.8C48.8,43.2,62.4,32.9,76,22.6c0.5-0.4,0.7-0.6,1.2-0.9c0.2-0.1,0.5-0.3,0.8-0.3
	s0.5,0.1,0.7,0.2c0.6,0.3,0.8,0.6,1.4,1.1c0,0,40.6,30.5,41.4,31.1C122.1,54.4,122.1,55.3,121.7,55.9z"/>
<path class="st0" d="M77.9,33.5c-5.1,0-9.3,4.2-9.3,9.3s4.2,9.3,9.3,9.3s9.3-4.2,9.3-9.3S83.1,33.5,77.9,33.5z M77.9,47.6
	c-2.7,0-4.8-2.3-4.8-5.1s2.2-5.1,4.8-5.1c2.7,0,4.8,2.3,4.8,5.1C82.8,45.3,80.6,47.6,77.9,47.6z"/>
</svg>
