<?xml version="1.0" encoding="utf-8"?>
<!-- Generator: Adobe Illustrator 23.0.2, SVG Export Plug-In . SVG Version: 6.00 Build 0)  -->
<svg version="1.1" id="Layer_1" xmlns="http://www.w3.org/2000/svg" xmlns:xlink="http://www.w3.org/1999/xlink" x="0px" y="0px"
	 viewBox="0 0 1076.4 240" style="enable-background:new 0 0 1076.4 240;" xml:space="preserve">
<style type="text/css">
	.st0{fill:none;}
	.st1{fill:#000D6B;}
	.st2{fill:#F037A5;}
</style>
<polyline class="st0" points="80.17,150.45 85.28,121.34 108.94,118.96 74.72,96.66 "/>
<path class="st0" d="M82.89,108.06"/>
<polygon class="st1" points="102.47,161.68 89.7,161.51 67.74,109.26 67.74,170.36 50.38,170.36 50.38,82.53 72,82.53 96.17,137 
	123.57,82.53 140.09,82.53 "/>
<path class="st2" d="M124.26,132.06c1.3-3.43,3.36-7.82,6.64-12.43c3.81-5.35,7.91-9.11,11.06-11.57c0,20.99,0,41.99,0,62.98h-17.7
	C124.26,158.05,124.26,145.06,124.26,132.06z"/>
<polygon class="st1" points="186.81,82.53 207.83,82.53 242.72,170.36 221.36,170.36 196.6,103.21 171.4,170.36 151.32,170.36 "/>
<path class="st1" d="M247.91,157.51c4.06,3.72,12.74,10.59,25.66,13.28c4.03,0.84,16.44,3.25,28.85-2.3
	c6.05-2.71,9.13-5.98,9.96-6.89c4.11-4.55,5.64-9.47,6.26-12.13c0.33-12.01-3.17-18.1-6.51-21.45c-3.18-3.19-9.1-5.36-20.94-9.7
	c-10.39-3.81-15.2-4.88-16.98-9.32c-1.1-2.75-0.9-6.45,1.02-8.68c3.61-4.18,12.25-1.96,17.87-0.51c4.12,1.06,7.12,1.83,10.72,3.96
	c4.83,2.85,7.12,3.17,7.02,3.45c-0.05,0.14-0.61,0.14-0.61,0.13c0-0.01,0.13-0.04,0.61-0.13c2.19-5.48,4.39-10.96,6.58-16.44l0,0
	c-6.57-3.81-18.43-9.43-32.75-9.35c-8.25,0.05-13.33,1.97-15.57,2.94c-2.88,1.25-8.77,3.8-12.38,9.57
	c-2.08,3.33-3.06,6.89-3.06,6.89s-0.23,0.83-1.28,6c0.18,10.11,4.41,14.9,6,16.47c1.58,1.55,3.19,2.52,6,4.21
	c2.25,1.35,6.55,3.73,12.64,5.74c5.4,1.79,8.25,1.98,13.28,4.34c1.24,0.58,3.3,1.62,4.98,3.83c1.2,1.58,1.76,3.16,2.04,4.21
	c-0.02,1.41-0.24,5.34-3.06,7.66c-0.63,0.52-2.59,1.94-9.7,1.4c-6.59-0.5-11.46-2.22-12.38-2.55c-3.96-1.43-10.08-4.19-16.53-9.63
	C253.07,147.52,250.49,152.51,247.91,157.51z"/>
<rect x="325.15" y="82.57" class="st1" width="70.85" height="16.47"/>
<path class="st1" d="M350.43,109.26c1.07-0.88,4.34-3.34,9.19-3.57c5.79-0.28,9.77,2.8,10.72,3.57c0,20.47,0,40.94,0,61.4h-19.91
	V109.26z"/>
<polygon class="st1" points="472.47,170.66 406.6,170.66 406.34,82.57 471.19,82.57 471.19,99.04 426,99.04 426.13,154.7 
	472.47,154.7 "/>
<polygon class="st2" points="438.89,134.66 466.72,134.66 466.72,118.7 442.34,118.7 "/>
<path class="st0" d="M566.81,104.4"/>
<path class="st1" d="M540,140.22c2.57-1.08,8.09-3.81,12.38-9.83c6.16-8.64,5.38-17.9,5.11-20.3c0.03-2.37-0.18-10.35-6-17.49
	c-0.79-0.97-5.1-6.12-12.73-8.65c-2.49-0.83-4.69-1.16-6.29-1.31h-44.3v88.09h20.04l0.13-28.6h12.26l15.83,28.6h21.95
	C552.26,160.56,546.13,150.39,540,140.22z M527.36,125.67h-19.4V98.73h19.4c6.74,0.86,11.84,6.64,11.87,13.4
	C539.27,118.95,534.15,124.8,527.36,125.67z"/>
<path class="st0" d="M498.89,85.26"/>
<path class="st1" d="M609.06,144.74c0.24-4.5,1.24-12.09,5.49-20.3c5.12-9.9,12.15-15.29,13.91-16.6c4.92-3.63,9.39-5.38,11.11-6
	c2.32-0.84,7.72-2.75,13.79-2.55c11.8,0.38,20.05,8.53,22.47,11.11c5.87-2.77,11.74-5.53,17.62-8.3
	c-2.61-3.59-8.26-10.34-17.87-15.06c-11.31-5.56-21.72-5.16-26.17-4.72c-3.56,0.08-18.04,0.8-30.13,12.26
	c-9.71,9.21-12.37,20.12-13.15,24.13c-0.44,4.34-0.55,9.95,0.51,16.34C607.25,138.72,608.13,141.97,609.06,144.74z"/>
<path class="st2" d="M625.28,127.26c1.42,14.14,11.72,25.27,24.38,27.19c15.1,2.29,25.67-9.73,26.3-10.47
	c5.74,2.51,11.49,5.02,17.23,7.53c-2.85,4.04-10.23,13.33-22.85,17.87c-6.98,2.51-13.2,2.73-16.21,2.81
	c-3.99,0.11-7.56,0.17-11.87-1.4c-4.08-1.49-6.96-3.76-8.68-5.36c-2.48-1.86-7-5.82-9.7-12.38
	C618.76,140.64,624.32,129.15,625.28,127.26z"/>
<polygon class="st1" points="763.15,170.66 707.49,170.66 707.49,82.7 727.28,82.7 727.15,153.43 763.27,153.45 "/>
<path class="st2" d="M770.68,157.89v13.66h27.45v-13.66H770.68z M793.4,167.47h-18.26v-4.98h18.26V167.47z"/>
<path class="st2" d="M807.21,157.89v13.66h27.45v-13.66H807.21z M829.94,167.47h-18.26v-4.98h18.26V167.47z"/>
<path class="st2" d="M843.81,157.89v13.66h27.45v-13.66H843.81z M866.53,167.47h-18.26v-4.98h18.26V167.47z"/>
<path class="st2" d="M770.55,103.23v13.66H798v-13.66H770.55z M793.28,112.81h-18.26v-4.98h18.26V112.81z"/>
<path class="st2" d="M807.21,103.23v13.66h27.45v-13.66H807.21z M829.94,112.81h-18.26v-4.98h18.26V112.81z"/>
<path class="st2" d="M843.68,103.23v13.66h27.45v-13.66H843.68z M866.4,112.81h-18.26v-4.98h18.26V112.81z"/>
<rect x="775.15" y="116.89" class="st2" width="4.85" height="41"/>
<rect x="788.94" y="116.89" class="st2" width="4.85" height="41"/>
<rect x="811.68" y="116.89" class="st2" width="4.85" height="41"/>
<rect x="825.09" y="116.89" class="st2" width="4.85" height="41"/>
<rect x="847.91" y="116.89" class="st2" width="4.85" height="41"/>
<rect x="861.68" y="116.89" class="st2" width="4.85" height="41"/>
<path class="st2" d="M875.95,104.4c-1.02-0.79-52.33-40.63-52.36-40.65c-0.83-0.64-1.03-1.01-1.78-1.38
	c-0.19-0.09-0.47-0.21-0.84-0.22c-0.43,0-0.76,0.16-1.05,0.32c-0.68,0.39-0.9,0.71-1.54,1.21c-17.19,13.49-34.39,26.98-51.58,40.47
	c-1.11,0.33-1.73,1.39-1.53,2.3c0.14,0.65,0.7,1.18,1.4,1.38c35.96,0,71.91,0,107.87,0c0.11,0.01,1.11,0.09,1.7-0.62
	C876.84,106.49,876.78,105.26,875.95,104.4z M864.66,102.76c-0.47,0.54-1.26,0.48-1.35,0.47c-28.42,0-56.84,0-85.27,0
	c-0.56-0.16-1-0.56-1.11-1.06c-0.16-0.7,0.33-1.5,1.21-1.76c13.59-10.31,27.18-20.61,40.77-30.92c0.51-0.38,0.68-0.63,1.22-0.92
	c0.23-0.13,0.49-0.25,0.83-0.25c0.29,0,0.51,0.09,0.66,0.17c0.6,0.28,0.75,0.57,1.41,1.06c0.02,0.02,40.58,30.46,41.38,31.06
	C865.08,101.27,865.13,102.21,864.66,102.76z"/>
<path class="st2" d="M820.94,80.41c-5.14,0-9.31,4.17-9.31,9.31s4.17,9.31,9.31,9.31c5.14,0,9.31-4.17,9.31-9.31
	S826.08,80.41,820.94,80.41z M820.94,94.49c-2.66,0-4.81-2.3-4.81-5.14c0-2.84,2.16-5.14,4.81-5.14c2.66,0,4.81,2.3,4.81,5.14
	C825.75,92.19,823.59,94.49,820.94,94.49z"/>
<path class="st1" d="M881.23,157.46c4.06,3.72,12.74,10.59,25.66,13.28c4.03,0.84,16.44,3.25,28.85-2.3
	c6.05-2.71,9.13-5.98,9.96-6.89c4.11-4.55,5.64-9.47,6.26-12.13c0.33-12.01-3.17-18.1-6.51-21.45c-3.18-3.19-9.1-5.36-20.94-9.7
	c-10.39-3.81-15.2-4.88-16.98-9.32c-1.1-2.75-0.9-6.45,1.02-8.68c3.61-4.18,12.25-1.96,17.87-0.51c4.12,1.06,7.12,1.83,10.72,3.96
	c4.83,2.85,7.12,3.17,7.02,3.45c-0.05,0.14-0.61,0.14-0.61,0.13c0-0.01,0.13-0.04,0.61-0.13c2.19-5.48,4.39-10.96,6.58-16.44l0,0
	c-6.57-3.81-18.43-9.43-32.75-9.35c-8.25,0.05-13.33,1.97-15.57,2.94c-2.88,1.25-8.77,3.8-12.38,9.57
	c-2.08,3.33-3.06,6.89-3.06,6.89c0,0-0.23,0.83-1.28,6c0.18,10.11,4.41,14.9,6,16.47c1.58,1.55,3.19,2.52,6,4.21
	c2.25,1.35,6.55,3.73,12.64,5.74c5.4,1.79,8.25,1.98,13.28,4.34c1.24,0.58,3.3,1.62,4.98,3.83c1.2,1.58,1.76,3.16,2.04,4.21
	c-0.02,1.41-0.24,5.34-3.06,7.66c-0.63,0.52-2.59,1.94-9.7,1.4c-6.59-0.5-11.46-2.22-12.38-2.55c-3.96-1.43-10.08-4.19-16.53-9.63
	C886.39,147.47,883.81,152.46,881.23,157.46z"/>
<path class="st1" d="M960.64,157.46c4.06,3.72,12.74,10.59,25.66,13.28c4.03,0.84,16.44,3.25,28.85-2.3
	c6.05-2.71,9.13-5.98,9.96-6.89c4.11-4.55,5.64-9.47,6.26-12.13c0.33-12.01-3.17-18.1-6.51-21.45c-3.18-3.19-9.1-5.36-20.94-9.7
	c-10.39-3.81-15.2-4.88-16.98-9.32c-1.1-2.75-0.9-6.45,1.02-8.68c3.61-4.18,12.25-1.96,17.87-0.51c4.12,1.06,7.12,1.83,10.72,3.96
	c4.83,2.85,7.12,3.17,7.02,3.45c-0.05,0.14-0.61,0.14-0.61,0.13c0-0.01,0.13-0.04,0.61-0.13c2.19-5.48,4.39-10.96,6.58-16.44l0,0
	c-6.57-3.81-18.43-9.43-32.75-9.35c-8.25,0.05-13.33,1.97-15.57,2.94c-2.88,1.25-8.77,3.8-12.38,9.57
	c-2.08,3.33-3.06,6.89-3.06,6.89c0,0-0.23,0.83-1.28,6c0.18,10.11,4.41,14.9,6,16.47c1.58,1.55,3.19,2.52,6,4.21
	c2.25,1.35,6.55,3.73,12.64,5.74c5.4,1.79,8.25,1.98,13.28,4.34c1.24,0.58,3.3,1.62,4.98,3.83c1.2,1.58,1.76,3.16,2.04,4.21
	c-0.02,1.41-0.24,5.34-3.06,7.66c-0.63,0.52-2.59,1.94-9.7,1.4c-6.59-0.5-11.46-2.22-12.38-2.55c-3.96-1.43-10.08-4.19-16.53-9.63
	C965.79,147.47,963.21,152.46,960.64,157.46z"/>
</svg>
